<svg width="218" height="50" viewBox="0 0 218 50" fill="none" xmlns="http://www.w3.org/2000/svg">
<g clip-path="url(#clip0_657_39338)">
<path d="M159.766 34.25C159.766 33.7188 159.682 33.25 159.516 32.8438C159.359 32.4271 159.078 32.0521 158.672 31.7188C158.276 31.3854 157.724 31.0677 157.016 30.7656C156.318 30.4635 155.432 30.1562 154.359 29.8438C153.234 29.5104 152.219 29.1406 151.312 28.7344C150.406 28.3177 149.63 27.8438 148.984 27.3125C148.339 26.7812 147.844 26.1719 147.5 25.4844C147.156 24.7969 146.984 24.0104 146.984 23.125C146.984 22.2396 147.167 21.4219 147.531 20.6719C147.896 19.9219 148.417 19.2708 149.094 18.7188C149.781 18.1562 150.599 17.7188 151.547 17.4062C152.495 17.0938 153.552 16.9375 154.719 16.9375C156.427 16.9375 157.875 17.2656 159.062 17.9219C160.26 18.5677 161.172 19.4167 161.797 20.4688C162.422 21.5104 162.734 22.625 162.734 23.8125H159.734C159.734 22.9583 159.552 22.2031 159.188 21.5469C158.823 20.8802 158.271 20.3594 157.531 19.9844C156.792 19.599 155.854 19.4062 154.719 19.4062C153.646 19.4062 152.76 19.5677 152.062 19.8906C151.365 20.2135 150.844 20.651 150.5 21.2031C150.167 21.7552 150 22.3854 150 23.0938C150 23.5729 150.099 24.0104 150.297 24.4062C150.505 24.7917 150.823 25.151 151.25 25.4844C151.688 25.8177 152.24 26.125 152.906 26.4062C153.583 26.6875 154.391 26.9583 155.328 27.2188C156.62 27.5833 157.734 27.9896 158.672 28.4375C159.609 28.8854 160.38 29.3906 160.984 29.9531C161.599 30.5052 162.052 31.1354 162.344 31.8438C162.646 32.5417 162.797 33.3333 162.797 34.2188C162.797 35.1458 162.609 35.9844 162.234 36.7344C161.859 37.4844 161.323 38.125 160.625 38.6562C159.927 39.1875 159.089 39.599 158.109 39.8906C157.141 40.1719 156.057 40.3125 154.859 40.3125C153.807 40.3125 152.771 40.1667 151.75 39.875C150.74 39.5833 149.818 39.1458 148.984 38.5625C148.161 37.9792 147.5 37.2604 147 36.4062C146.51 35.5417 146.266 34.5417 146.266 33.4062H149.266C149.266 34.1875 149.417 34.8594 149.719 35.4219C150.021 35.974 150.432 36.4323 150.953 36.7969C151.484 37.1615 152.083 37.4323 152.75 37.6094C153.427 37.776 154.13 37.8594 154.859 37.8594C155.911 37.8594 156.802 37.7135 157.531 37.4219C158.26 37.1302 158.812 36.7135 159.188 36.1719C159.573 35.6302 159.766 34.9896 159.766 34.25ZM169.094 16V40H166.203V16H169.094ZM168.406 30.9062L167.203 30.8594C167.214 29.7031 167.385 28.6354 167.719 27.6562C168.052 26.6667 168.521 25.8073 169.125 25.0781C169.729 24.349 170.448 23.7865 171.281 23.3906C172.125 22.9844 173.057 22.7812 174.078 22.7812C174.911 22.7812 175.661 22.8958 176.328 23.125C176.995 23.3438 177.562 23.6979 178.031 24.1875C178.51 24.6771 178.875 25.3125 179.125 26.0938C179.375 26.8646 179.5 27.8073 179.5 28.9219V40H176.594V28.8906C176.594 28.0052 176.464 27.2969 176.203 26.7656C175.943 26.224 175.562 25.8333 175.062 25.5938C174.562 25.3438 173.948 25.2188 173.219 25.2188C172.5 25.2188 171.844 25.3698 171.25 25.6719C170.667 25.974 170.161 26.3906 169.734 26.9219C169.318 27.4531 168.99 28.0625 168.75 28.75C168.521 29.4271 168.406 30.1458 168.406 30.9062ZM183.062 31.7344V31.375C183.062 30.1562 183.24 29.026 183.594 27.9844C183.948 26.9323 184.458 26.0208 185.125 25.25C185.792 24.4688 186.599 23.8646 187.547 23.4375C188.495 23 189.557 22.7812 190.734 22.7812C191.922 22.7812 192.99 23 193.938 23.4375C194.896 23.8646 195.708 24.4688 196.375 25.25C197.052 26.0208 197.568 26.9323 197.922 27.9844C198.276 29.026 198.453 30.1562 198.453 31.375V31.7344C198.453 32.9531 198.276 34.0833 197.922 35.125C197.568 36.1667 197.052 37.0781 196.375 37.8594C195.708 38.6302 194.901 39.2344 193.953 39.6719C193.016 40.099 191.953 40.3125 190.766 40.3125C189.578 40.3125 188.51 40.099 187.562 39.6719C186.615 39.2344 185.802 38.6302 185.125 37.8594C184.458 37.0781 183.948 36.1667 183.594 35.125C183.24 34.0833 183.062 32.9531 183.062 31.7344ZM185.953 31.375V31.7344C185.953 32.5781 186.052 33.375 186.25 34.125C186.448 34.8646 186.745 35.5208 187.141 36.0938C187.547 36.6667 188.052 37.1198 188.656 37.4531C189.26 37.776 189.964 37.9375 190.766 37.9375C191.557 37.9375 192.25 37.776 192.844 37.4531C193.448 37.1198 193.948 36.6667 194.344 36.0938C194.74 35.5208 195.036 34.8646 195.234 34.125C195.443 33.375 195.547 32.5781 195.547 31.7344V31.375C195.547 30.5417 195.443 29.7552 195.234 29.0156C195.036 28.2656 194.734 27.6042 194.328 27.0312C193.932 26.4479 193.432 25.9896 192.828 25.6562C192.234 25.3229 191.536 25.1562 190.734 25.1562C189.943 25.1562 189.245 25.3229 188.641 25.6562C188.047 25.9896 187.547 26.4479 187.141 27.0312C186.745 27.6042 186.448 28.2656 186.25 29.0156C186.052 29.7552 185.953 30.5417 185.953 31.375ZM204.969 26.3438V46.5H202.062V23.0938H204.719L204.969 26.3438ZM216.359 31.4062V31.7344C216.359 32.9635 216.214 34.1042 215.922 35.1562C215.63 36.1979 215.203 37.1042 214.641 37.875C214.089 38.6458 213.406 39.2448 212.594 39.6719C211.781 40.099 210.849 40.3125 209.797 40.3125C208.724 40.3125 207.776 40.1354 206.953 39.7812C206.13 39.4271 205.432 38.9115 204.859 38.2344C204.286 37.5573 203.828 36.7448 203.484 35.7969C203.151 34.849 202.922 33.7812 202.797 32.5938V30.8438C202.922 29.5938 203.156 28.474 203.5 27.4844C203.844 26.4948 204.297 25.651 204.859 24.9531C205.432 24.2448 206.125 23.7083 206.938 23.3438C207.75 22.9688 208.688 22.7812 209.75 22.7812C210.812 22.7812 211.755 22.9896 212.578 23.4062C213.401 23.8125 214.094 24.3958 214.656 25.1562C215.219 25.9167 215.641 26.8281 215.922 27.8906C216.214 28.9427 216.359 30.1146 216.359 31.4062ZM213.453 31.7344V31.4062C213.453 30.5625 213.365 29.7708 213.188 29.0312C213.01 28.2812 212.734 27.625 212.359 27.0625C211.995 26.4896 211.526 26.0417 210.953 25.7188C210.38 25.3854 209.698 25.2188 208.906 25.2188C208.177 25.2188 207.542 25.3438 207 25.5938C206.469 25.8438 206.016 26.1823 205.641 26.6094C205.266 27.026 204.958 27.5052 204.719 28.0469C204.49 28.5781 204.318 29.1302 204.203 29.7031V33.75C204.411 34.4792 204.703 35.1667 205.078 35.8125C205.453 36.4479 205.953 36.9635 206.578 37.3594C207.203 37.7448 207.99 37.9375 208.938 37.9375C209.719 37.9375 210.391 37.776 210.953 37.4531C211.526 37.1198 211.995 36.6667 212.359 36.0938C212.734 35.5208 213.01 34.8646 213.188 34.125C213.365 33.375 213.453 32.5781 213.453 31.7344Z" fill="#008285"/>
<path d="M137 1C137 0.447715 136.552 0 136 0C135.448 0 135 0.447715 135 1V49C135 49.5523 135.448 50 136 50C136.552 50 137 49.5523 137 49V1Z" fill="#262626"/>
<g clip-path="url(#clip1_657_39338)">
<path fill-rule="evenodd" clip-rule="evenodd" d="M23.2074 18.727C22.8912 18.727 22.575 18.727 22.1956 18.727C21.8162 18.2843 21.5 17.8417 21.1206 17.399C20.6147 16.7667 20.1088 16.1343 19.603 15.502C19.4765 15.3755 19.4132 15.249 19.2868 15.1225C18.9074 14.7431 18.9074 14.7431 18.4015 14.7431V16.4505C18.4015 16.8299 18.3383 18.0314 18.7177 18.2843C18.9074 18.4108 19.1603 18.4108 19.35 18.4108C19.4132 18.4108 19.5397 18.4108 19.603 18.4108V18.727C18.9706 18.727 18.3383 18.6637 17.7059 18.6637C17.0735 18.6637 16.4412 18.6637 15.8088 18.727V18.4108C15.8721 18.4108 15.9985 18.4108 16.0618 18.4108C16.2515 18.4108 16.5044 18.4108 16.6941 18.2843C17.0735 18.0314 17.0103 16.8299 17.0103 16.4505V12.4667C17.0103 12.024 17.0735 10.8225 16.6309 10.5696C16.4412 10.5064 16.2515 10.5064 16.0618 10.4431H15.8088V10.127C16.4412 10.127 17.0735 10.1902 17.7059 10.1902C18.4015 10.1902 19.0971 10.127 19.7294 10.127C20.425 10.127 21.1206 10.127 21.753 10.5064C22.3853 10.8858 22.6382 11.5814 22.6382 12.277C22.6382 13.099 22.1956 13.8578 21.4368 14.174C21.0574 14.3637 20.7412 14.427 20.2985 14.4902L23.1441 17.7784C23.5235 18.2211 23.7765 18.3475 24.3456 18.4108V18.727C23.9662 18.727 23.5868 18.727 23.2074 18.727ZM19.35 10.5064C19.2868 10.5064 18.5912 10.5064 18.4647 10.5696C18.3383 10.6328 18.3383 10.7593 18.3383 10.8858V14.4902H18.7177C19.4133 14.4902 20.5515 14.3637 20.9309 13.7314C21.1206 13.4152 21.1838 12.9725 21.1838 12.6564C21.1838 11.3917 20.678 10.5064 19.35 10.5064Z" fill="#262626"/>
<path fill-rule="evenodd" clip-rule="evenodd" d="M27.6338 18.916C25.9897 18.916 24.5353 17.6513 24.5353 15.944C24.5353 14.2366 25.9897 13.0352 27.6338 13.0352C29.2779 13.0352 30.7956 14.2999 30.7956 15.944C30.7956 17.7146 29.3412 18.916 27.6338 18.916ZM27.6338 13.3513C26.2426 13.3513 25.8 14.7425 25.8 15.944C25.8 17.1455 26.1162 18.6631 27.6338 18.6631C29.0882 18.6631 29.4044 17.2719 29.4044 16.0705C29.4676 14.8057 29.1515 13.3513 27.6338 13.3513Z" fill="#262626"/>
<path fill-rule="evenodd" clip-rule="evenodd" d="M36.1073 13.9842C35.8544 14.4901 35.6646 15.0592 35.4117 15.5651L33.7044 19.5489C33.5779 19.8018 33.2617 20.5606 33.2617 20.5606C33.1352 20.8768 32.8191 21.6356 32.3132 21.6356C32.1235 21.6356 31.9338 21.5092 31.9338 21.2562C31.9338 20.8136 32.3132 20.6871 32.6294 20.5606C33.0088 20.3709 33.072 20.118 33.1985 19.6753L33.6411 18.6003L31.7441 14.1739C31.4911 13.6048 31.4279 13.4783 30.8588 13.4151V13.1621C31.3014 13.1621 31.7441 13.1621 32.2499 13.1621C32.7558 13.1621 33.1985 13.1621 33.6411 13.1621V13.4783C33.3249 13.5415 32.8823 13.4151 32.8823 13.8577C32.8823 14.1739 33.1985 14.9327 33.3249 15.2489L34.2102 17.3989L35.222 14.9327C35.3485 14.6798 35.5382 14.1739 35.5382 13.8577C35.5382 13.4783 35.0955 13.4783 34.8426 13.4783V13.1621C35.1588 13.1621 35.4749 13.1621 35.7911 13.1621C36.1073 13.1621 36.4235 13.1621 36.6764 13.1621V13.4783C36.297 13.4783 36.297 13.6048 36.1073 13.9842Z" fill="#262626"/>
<path fill-rule="evenodd" clip-rule="evenodd" d="M41.7985 18.8521C41.2294 18.8521 40.85 18.5359 40.7235 18.03C40.0912 18.5359 39.3956 18.9785 38.5735 18.9785C37.878 18.9785 37.2456 18.5991 37.2456 17.8403C37.2456 16.7653 38.2574 16.3227 39.1427 15.9432L40.0912 15.5006C40.2177 15.4374 40.5338 15.3109 40.5971 15.1844C40.6603 15.1212 40.6603 14.9947 40.6603 14.8682C40.6603 13.9197 40.5338 13.3506 39.5221 13.3506C38.8897 13.3506 38.3838 13.4138 38.3206 14.1094C38.2574 14.4256 38.1309 14.6785 37.8147 14.6785C37.5618 14.6785 37.3721 14.4888 37.3721 14.2359C37.3721 13.2241 39.0794 13.0977 39.775 13.0977C41.0397 13.0977 41.8618 13.4138 41.8618 14.805V17.2712C41.8618 17.5874 41.8618 18.283 42.3044 18.283C42.5574 18.283 42.6838 18.1565 42.8103 17.9668L43.0633 18.0932C42.7471 18.4727 42.3677 18.8521 41.7985 18.8521ZM40.6603 15.5006C40.2809 15.6271 39.9015 15.8168 39.5853 16.0065C39.0162 16.3227 38.3838 16.7021 38.3838 17.3977C38.3838 17.9035 38.7 18.3462 39.2059 18.3462C39.775 18.3462 40.2809 17.9668 40.6603 17.5874V15.5006Z" fill="#262626"/>
<path fill-rule="evenodd" clip-rule="evenodd" d="M44.897 18.727C44.3912 18.727 43.9485 18.727 43.4426 18.7902V18.474C44.2647 18.4108 44.3279 18.3475 44.3279 17.5255C44.3279 17.3358 44.3279 17.1461 44.3279 16.9564V12.2137C44.3279 11.8343 44.3912 11.0755 44.0117 10.8858C43.822 10.8225 43.5691 10.7593 43.3794 10.7593V10.5064C44.075 10.4431 44.7706 10.2534 45.4662 10.127V16.9564C45.4662 17.1461 45.4662 17.3358 45.4662 17.5255C45.4662 18.3475 45.5294 18.3475 46.3515 18.474V18.7902C45.8456 18.727 45.3397 18.727 44.897 18.727Z" fill="#262626"/>
<path fill-rule="evenodd" clip-rule="evenodd" d="M10.9398 28.4005C10.1177 29.0329 9.2324 28.9696 8.28388 28.9696C7.77799 28.9696 7.20888 28.9696 6.70299 28.9696C6.51329 28.9696 6.32358 28.9696 6.13387 28.9696C5.50152 28.9696 4.86917 29.0329 4.23682 29.0329V28.7167C4.30005 28.7167 4.42652 28.7167 4.48976 28.7167C4.67946 28.7167 4.9324 28.7167 5.12211 28.5902C5.56476 28.3373 5.43829 27.1358 5.43829 26.7564V22.7726C5.43829 22.3299 5.50152 21.1917 5.12211 20.9387C4.9324 20.8123 4.67946 20.8123 4.48976 20.8123C4.42652 20.8123 4.30005 20.8123 4.23682 20.8123V20.4961C4.99564 20.4961 5.75446 20.5593 6.51329 20.5593C7.01917 20.5593 7.52505 20.4961 8.03093 20.4961C9.35887 20.4961 10.8765 20.9387 10.8765 22.5196C10.8765 23.2152 10.4971 23.7843 9.86476 24.1637C9.54858 24.2902 9.2324 24.4167 8.91623 24.4799C9.67505 24.6064 10.4971 24.7329 11.0662 25.302C11.5089 25.6814 11.7618 26.2505 11.7618 26.8829C11.6986 27.3887 11.4456 27.9579 10.9398 28.4005ZM7.58829 24.6696H6.76623V26.6299C6.76623 27.1358 6.70299 28.2108 7.27211 28.527C7.52505 28.6534 7.77799 28.6534 8.09417 28.6534H8.1574C8.22064 28.6534 8.28388 28.6534 8.28388 28.6534C8.66329 28.5902 9.0427 28.5902 9.35888 28.4005C9.92799 28.0843 10.1177 27.3255 10.1177 26.7564C10.1177 25.049 9.0427 24.6696 7.58829 24.6696ZM7.58829 20.749C7.39858 20.749 6.8927 20.6858 6.76623 20.9387C6.70299 21.002 6.70299 21.1284 6.70299 21.2549V24.3534H7.58829C8.72652 24.3534 9.42211 23.7211 9.42211 22.5829C9.42211 21.3814 8.78976 20.749 7.58829 20.749Z" fill="#262626"/>
<path fill-rule="evenodd" clip-rule="evenodd" d="M15.7456 29.1602C14.1015 29.1602 12.6471 27.8955 12.6471 26.1881C12.6471 24.4808 14.1015 23.2793 15.7456 23.2793C17.3897 23.2793 18.9074 24.544 18.9074 26.1881C18.8442 27.9587 17.3897 29.1602 15.7456 29.1602ZM15.6824 23.5955C14.2912 23.5955 13.8486 24.9867 13.8486 26.1881C13.8486 27.3896 14.1647 28.9072 15.6824 28.9072C17.1368 28.9072 17.453 27.5161 17.453 26.3146C17.5162 25.0499 17.2 23.5955 15.6824 23.5955Z" fill="#262626"/>
<path fill-rule="evenodd" clip-rule="evenodd" d="M21.8161 29.1612C20.7411 29.1612 20.2353 28.7186 20.2353 27.6436V23.7862H19.6029V23.6597H19.6661C20.3617 23.2803 20.8676 22.7744 21.1838 22.0156H21.3735V23.47H22.8279V23.7862H21.3735V27.1377C21.3735 27.3906 21.3735 27.6436 21.4367 27.9597C21.5 28.4656 21.6264 28.7818 22.1956 28.7818C22.6382 28.7818 22.8911 28.5289 23.1441 28.1494L23.397 28.3392C23.0176 28.9715 22.4485 29.1612 21.8161 29.1612Z" fill="#262626"/>
<path fill-rule="evenodd" clip-rule="evenodd" d="M28.5824 29.0962C28.0132 29.0962 27.6338 28.78 27.5074 28.2741C26.875 28.78 26.1794 29.2227 25.3574 29.2227C24.6618 29.2227 24.0294 28.8433 24.0294 28.0844C24.0294 27.0094 25.0412 26.5668 25.9265 26.1874L26.875 25.7447C27.0015 25.6815 27.3177 25.555 27.3809 25.4286C27.4441 25.3653 27.4441 25.2389 27.4441 25.1124C27.4441 24.1639 27.3177 23.5947 26.3059 23.5947C25.6735 23.5947 25.1677 23.658 25.1044 24.3536C25.0412 24.6697 24.9147 24.9227 24.5353 24.9227C24.2824 24.9227 24.0927 24.733 24.0927 24.48C24.0927 23.4683 25.8 23.3418 26.4956 23.3418C27.7603 23.3418 28.5824 23.658 28.5824 25.0491V27.5153C28.5824 27.8315 28.5824 28.5271 29.025 28.5271C29.2779 28.5271 29.4044 28.4006 29.5941 28.2109L29.8471 28.3374C29.5309 28.7168 29.1515 29.0962 28.5824 29.0962ZM27.4441 25.7447C27.0647 25.8712 26.6853 26.0609 26.3691 26.2506C25.8 26.5668 25.1677 26.9462 25.1677 27.6418C25.1677 28.1477 25.4838 28.5903 25.9897 28.5903C26.5588 28.5903 27.0647 28.2109 27.4441 27.8315V25.7447Z" fill="#262626"/>
<path fill-rule="evenodd" clip-rule="evenodd" d="M35.7911 28.9705C35.2853 28.9705 34.7794 28.9705 34.3367 29.0337V28.7175C35.1588 28.6543 35.222 28.5911 35.222 27.769C35.222 27.5793 35.222 27.3896 35.222 27.1999V25.7455C35.222 24.8602 35.1588 23.7219 34.0206 23.7219C33.5147 23.7219 32.9456 23.9749 32.6926 24.4175C32.3764 24.9234 32.3764 25.4925 32.3764 26.0616V27.1999C32.3764 27.3896 32.3764 27.5793 32.3764 27.769C32.3764 28.5911 32.4397 28.6543 33.2617 28.7175V29.0337C32.7558 29.0337 32.3132 28.9705 31.8073 28.9705C31.3014 28.9705 30.8588 28.9705 30.3529 29.0337V28.7175C31.175 28.6543 31.2382 28.5911 31.2382 27.769C31.2382 27.5793 31.2382 27.3896 31.2382 27.1999V25.619C31.2382 25.3028 31.3014 24.2911 31.0485 24.1014C30.922 23.9749 30.7323 23.9749 30.6058 23.9749H30.3529V23.7219C30.9853 23.6587 31.5544 23.469 32.1235 23.2793C32.25 23.7219 32.25 24.1014 32.3132 24.544C32.7558 23.7852 33.4514 23.3425 34.3367 23.3425C35.0956 23.3425 36.0441 23.5955 36.2338 24.4808C36.297 24.7969 36.297 25.1131 36.297 25.4293C36.297 26.0616 36.297 26.694 36.297 27.3264C36.297 27.5161 36.297 27.7058 36.297 27.8955C36.297 28.1484 36.297 28.5911 36.55 28.7175C36.7397 28.844 36.9926 28.844 37.2456 28.844V29.1602C36.7397 28.9705 36.297 28.9705 35.7911 28.9705Z" fill="#262626"/>
<path fill-rule="evenodd" clip-rule="evenodd" d="M39.4588 28.9706C38.9529 28.9706 38.447 28.9706 38.0044 29.0338V28.7177C38.8265 28.6544 38.8897 28.5912 38.8897 27.7691C38.8897 27.5794 38.8897 27.3897 38.8897 27.2V25.4294C38.8897 25.2397 38.8897 24.3544 38.8265 24.1647C38.7 24.0383 38.5735 23.975 38.3838 23.975C38.2573 23.975 38.0676 23.975 37.9412 23.975V23.6588C38.7 23.5324 39.2691 23.4059 40.0279 23.153V27.1368C40.0279 27.3265 40.0279 27.5162 40.0279 27.7059C40.0279 28.528 40.0912 28.5912 40.9132 28.6544V28.9706C40.4706 28.9706 39.9647 28.9706 39.4588 28.9706ZM39.3323 21.6353C38.9529 21.6353 38.6367 21.3191 38.6367 20.9397C38.6367 20.5603 38.9529 20.2441 39.3323 20.2441C39.7117 20.2441 40.0279 20.5603 40.0279 20.9397C40.0279 21.3824 39.7117 21.6353 39.3323 21.6353Z" fill="#262626"/>
<path fill-rule="evenodd" clip-rule="evenodd" d="M44.2647 29.1609C42.6205 29.1609 41.4823 28.0227 41.4823 26.3786C41.4823 24.5447 42.8102 23.2168 44.6441 23.2168C45.1499 23.2168 46.3514 23.3433 46.3514 24.1021C46.3514 24.355 46.1617 24.5447 45.9088 24.5447C45.5926 24.5447 45.4661 24.2918 45.3397 24.0389C45.1499 23.5962 45.0867 23.533 44.5808 23.533C43.1897 23.533 42.747 24.9242 42.747 26.1256C42.747 27.3271 43.1264 28.655 44.5808 28.655C45.2764 28.655 45.7823 28.3389 46.2249 27.833L46.4779 28.0859C45.972 28.8447 45.1499 29.1609 44.2647 29.1609Z" fill="#262626"/>
<path fill-rule="evenodd" clip-rule="evenodd" d="M8.47352 37.5074C8.47352 37.95 8.47352 38.4559 8.53675 38.8986C7.65146 38.8986 7.46175 39.0883 6.70293 39.4677C6.00734 39.7838 5.43822 39.9736 4.61617 39.9736C3.41469 39.9736 2.40293 39.6574 1.51764 38.8353C0.632341 37.95 0.25293 37.0015 0.25293 35.7368C0.25293 33.0177 2.08675 30.9941 4.80587 30.9941C5.81764 30.9941 6.63969 31.1838 7.46175 31.8162L7.71469 31.2471H7.84117L7.71469 33.8397H7.46175C7.39852 32.3221 6.38675 31.3736 4.86911 31.3736C2.40293 31.3736 1.83381 33.7133 1.83381 35.7368C1.83381 37.6338 2.5294 39.6574 4.74264 39.6574C6.00734 39.6574 6.95587 39.0883 6.95587 37.6971C6.95587 36.875 6.70293 36.6221 5.81764 36.5588V36.2427C6.38675 36.2427 6.95587 36.2427 7.58822 36.2427C8.15734 36.2427 8.66322 36.2427 9.23234 36.2427V36.5588C8.59999 36.5588 8.47352 36.8118 8.47352 37.5074Z" fill="#262626"/>
<path fill-rule="evenodd" clip-rule="evenodd" d="M14.6706 39.8462C14.1015 39.8462 13.7221 39.53 13.5956 39.0241C12.9633 39.53 12.2677 39.9727 11.4456 39.9727C10.75 39.9727 10.1177 39.5933 10.1177 38.8344C10.1177 37.7594 11.1294 37.3168 12.0147 36.9374L12.9633 36.4947C13.0897 36.4315 13.4059 36.305 13.5324 36.1786C13.5956 36.1153 13.5956 35.9889 13.5956 35.8624C13.5956 34.9139 13.4691 34.3447 12.4574 34.3447C11.825 34.3447 11.3191 34.408 11.2559 35.1036C11.1927 35.4197 11.0662 35.6727 10.6868 35.6727C10.4339 35.6727 10.2441 35.483 10.2441 35.23C10.2441 34.2183 11.9515 34.0918 12.6471 34.0918C13.9118 34.0918 14.7339 34.408 14.7339 35.7991V38.2653C14.7339 38.5815 14.7339 39.2771 15.1765 39.2771C15.4294 39.2771 15.5559 39.1506 15.7456 38.9609L15.9986 39.0874C15.6191 39.4668 15.1765 39.8462 14.6706 39.8462ZM13.4691 36.558C13.0897 36.6844 12.7103 36.8742 12.3941 37.0639C11.825 37.38 11.1927 37.7594 11.1927 38.455C11.1927 38.9609 11.5089 39.4036 12.0147 39.4036C12.5839 39.4036 13.0897 39.0241 13.4691 38.6447V36.558Z" fill="#262626"/>
<path fill-rule="evenodd" clip-rule="evenodd" d="M20.6779 35.1683C20.1088 35.1683 20.2353 34.4727 19.7294 34.4727C19.35 34.4727 18.9073 34.7889 18.7176 35.105C18.4015 35.6109 18.4015 36.18 18.4015 36.7491V37.9506C18.4015 38.1403 18.4015 38.33 18.4015 38.5197C18.4015 39.405 18.5912 39.405 19.4132 39.4683V39.7844C18.9073 39.7844 18.4015 39.7212 17.8956 39.7212C17.3897 39.7212 16.8838 39.7212 16.3779 39.7844V39.4683C17.2 39.405 17.2632 39.3418 17.2632 38.5197C17.2632 38.33 17.2632 38.1403 17.2632 37.9506V36.3697C17.2632 36.0536 17.3265 35.0418 17.0103 34.7889C16.8838 34.7256 16.6941 34.7256 16.5676 34.6624H16.3147V34.4094C16.9471 34.3462 17.4529 34.1565 18.0853 33.9668C18.2118 34.4727 18.275 34.8521 18.275 35.358C18.6544 34.5359 19.2235 34.03 20.172 34.03C20.5515 34.03 21.1206 34.2197 21.1206 34.7256C21.1206 34.9786 20.9309 35.1683 20.6779 35.1683Z" fill="#262626"/>
<path fill-rule="evenodd" clip-rule="evenodd" d="M26.6221 39.9111C26.4956 39.5949 26.4323 39.2787 26.3691 38.8993C25.8 39.5949 25.2941 39.9111 24.3456 39.9111C22.7015 39.9111 21.5632 38.6463 21.5632 37.0022C21.5632 35.3581 22.7015 34.0302 24.4088 34.0302C25.1676 34.0302 25.7368 34.2831 26.2426 34.8522V32.639C26.2426 31.8169 26.1162 31.6272 25.2309 31.564V31.3111C25.9265 31.2478 26.6221 31.0581 27.3176 30.9316V37.6346C27.3176 38.014 27.2544 38.8993 27.6971 39.1522C27.8235 39.2155 28.0132 39.2787 28.2029 39.2787H28.3926V39.5316C27.7603 39.5949 27.1912 39.7846 26.6221 39.9111ZM26.2426 36.3066C26.2426 35.5478 26.2426 35.1052 25.6103 34.6625C25.3573 34.4728 25.0412 34.4096 24.6618 34.4096C23.2706 34.4096 22.8279 35.8008 22.8279 37.0022C22.8279 38.2037 23.2073 39.5316 24.5985 39.5316C25.1044 39.5316 25.6735 39.2787 25.9265 38.8361C26.1162 38.4566 26.1794 37.6978 26.1794 37.2552C26.2426 36.939 26.2426 36.6228 26.2426 36.3066Z" fill="#262626"/>
<path fill-rule="evenodd" clip-rule="evenodd" d="M34.0839 36.2433H30.1633C30.1 36.433 30.1 36.6227 30.1 36.8756C30.1 38.1403 30.7324 39.405 32.1236 39.405C32.8192 39.405 33.325 39.0889 33.7677 38.5197L34.0206 38.7727C33.3883 39.5315 32.7559 39.8477 31.7442 39.8477C30.1 39.8477 28.7721 38.7094 28.7721 37.0021C28.7721 35.358 30.0368 33.9668 31.7442 33.9668C33.0089 33.9668 34.2103 34.7256 34.2103 36.0536C34.2103 36.2433 34.2103 36.2433 34.0839 36.2433ZM31.7442 34.3462C30.7324 34.3462 30.4162 35.0418 30.2265 35.9271H32.503C32.7559 35.9271 33.0089 35.9271 33.0089 35.6741C33.0089 34.8521 32.5662 34.3462 31.7442 34.3462Z" fill="#262626"/>
<path fill-rule="evenodd" clip-rule="evenodd" d="M40.3441 39.7212C39.8382 39.7212 39.3324 39.7212 38.8897 39.7844V39.4683C39.7118 39.405 39.775 39.3418 39.775 38.5197C39.775 38.33 39.775 38.1403 39.775 37.9506V36.4962C39.775 35.6109 39.7118 34.4727 38.5735 34.4727C38.0676 34.4727 37.4985 34.7256 37.2456 35.1683C36.9294 35.6741 36.9294 36.2433 36.9294 36.8124V37.9506C36.9294 38.1403 36.9294 38.33 36.9294 38.5197C36.9294 39.3418 36.9926 39.405 37.8147 39.4683V39.7844C37.3088 39.7844 36.8662 39.7212 36.3603 39.7212C35.8544 39.7212 35.4118 39.7212 34.9059 39.7844V39.4683C35.7279 39.405 35.7912 39.3418 35.7912 38.5197C35.7912 38.33 35.7912 38.1403 35.7912 37.9506V36.3697C35.7912 36.0536 35.8544 35.0418 35.6015 34.7889C35.475 34.6624 35.2853 34.6624 35.1588 34.6624H34.9059V34.4094C35.5382 34.3462 36.1074 34.1565 36.6765 33.9668C36.8029 34.4094 36.8029 34.7889 36.8662 35.2315C37.3088 34.4727 38.0044 34.03 38.8897 34.03C39.6485 34.03 40.5971 34.283 40.7868 35.1683C40.85 35.4844 40.85 35.8006 40.85 36.1168C40.85 36.7491 40.85 37.3815 40.85 38.0139C40.85 38.2036 40.85 38.3933 40.85 38.583C40.85 38.8359 40.85 39.2786 41.1029 39.405C41.2926 39.5315 41.5456 39.5315 41.7985 39.5315V39.8477C41.2926 39.7212 40.7868 39.7212 40.3441 39.7212Z" fill="#262626"/>
<path fill-rule="evenodd" clip-rule="evenodd" d="M44.5809 39.9102C44.075 39.9102 43.5691 39.7837 43.1265 39.4675L42.8735 39.8469H42.6838V37.9499H42.9368C43.1265 38.8352 43.5691 39.594 44.5809 39.594C45.15 39.594 45.6559 39.2778 45.6559 38.6455C45.6559 37.2543 42.7471 37.3808 42.7471 35.5469C42.7471 34.6616 43.5059 34.0293 44.328 34.0293C44.7706 34.0293 45.2133 34.1558 45.5927 34.3455L45.8456 34.0293H45.9721V35.6734H45.7191C45.4662 34.9778 45.2133 34.3455 44.3912 34.3455C43.9485 34.3455 43.5691 34.5984 43.5691 35.0411C43.5691 35.6102 43.9485 35.7999 44.3912 36.0528C45.3397 36.5587 46.478 36.9381 46.478 38.2028C46.478 39.2146 45.5927 39.9102 44.5809 39.9102Z" fill="#262626"/>
<path fill-rule="evenodd" clip-rule="evenodd" d="M118.44 17.4609V18.0933L119.262 18.1565C120.147 18.283 121.285 18.4727 121.854 18.9786C122.171 19.2948 122.424 19.6742 122.234 20.3065L117.112 33.7124L112.496 21.3815C112.179 20.5595 112.053 20.1801 112.053 19.7374C112.053 18.9153 112.749 18.3462 113.634 18.2198L115.404 18.0933V17.4609H104.528V18.0933L105.603 18.1565C106.678 18.2198 107.247 18.1565 107.879 18.9153C108.385 19.4845 108.132 20.2433 108.069 20.3065L102.947 33.7756L98.3942 21.3815C98.078 20.5595 97.8883 20.0536 97.8883 19.5477C97.9515 18.6624 98.7736 18.3462 99.3427 18.2198C99.9118 18.0933 100.734 18.0933 100.734 18.0933V17.4609H90.0471V18.0933C90.0471 18.0933 90.7427 18.0933 91.7545 18.2198C92.703 18.3462 93.3986 18.9153 94.0942 20.7492L100.924 39.0242L101.113 39.5933H101.493L101.746 39.0242L108.638 21.3815L115.025 39.0242L115.278 39.6565H115.721L115.91 39.0874L122.424 22.5198L122.993 21.2551C123.372 20.3065 123.562 20.1168 123.815 19.6109C124.257 18.7889 125.269 18.4727 126.597 18.283C127.419 18.0933 127.799 18.1565 128.304 18.0933V17.4609H118.44Z" fill="#262626"/>
<path fill-rule="evenodd" clip-rule="evenodd" d="M75.7558 38.9615C73.8588 38.9615 72.1514 36.938 70.7602 35.2939L60.8955 20.6865L66.65 14.1733C68.6102 12.1497 69.6852 11.2012 71.9617 11.0115L73.1632 10.885V10.1895H63.0455V10.9483C63.0455 10.9483 63.6147 10.9483 64.0573 11.0115C65.0058 11.0747 65.9544 11.5806 65.9544 12.4027C65.9544 13.4145 65.0691 14.2997 64.1205 15.3115L56.3426 23.9115V14.4895C56.3426 11.3909 57.797 11.138 58.2397 11.0747C58.9985 10.9483 59.5044 10.9483 59.5044 10.9483V10.2527H49.45V10.9483C49.45 10.9483 50.1455 10.9483 50.8411 11.0115C51.5367 11.0747 52.6117 11.4542 52.6117 14.4895V35.61C52.6117 38.7086 51.9161 39.0247 50.0191 39.0247H49.45V39.8468H59.6941V39.0247H59.0617C57.1647 39.0247 56.3426 38.7086 56.3426 35.6733V25.8086L58.1764 23.785L67.2191 37.0645C67.2191 37.0645 67.4088 37.3174 67.472 37.6336C67.472 37.8865 67.4088 38.2659 67.2191 38.4556C66.9029 38.8983 66.2705 39.088 65.0691 39.088H64.9426C64.6264 39.088 64.5 39.088 64.5 39.088V39.91H76.3882V39.088L75.7558 38.9615Z" fill="#262626"/>
<path fill-rule="evenodd" clip-rule="evenodd" d="M92.3235 25.8727C92.3235 23.4698 91.122 21.1933 89.8573 19.9286C88.2132 18.2845 85.8735 17.3359 83.2176 17.3359C77.2735 17.3359 73.1 22.3948 73.1 28.5918C73.1 35.2948 77.9059 39.9109 84.2926 39.9109C87.2014 39.9109 89.1617 38.8992 90.2367 38.0139C91.2485 37.1918 91.8176 36.433 92.2603 35.6742C92.9559 34.4727 93.0191 33.8403 93.0191 33.8403L92.5132 33.5874C92.5132 33.5874 92.3235 34.0301 91.8176 34.9786C91.2485 35.9271 90.1103 36.6859 89.5412 37.0653C89.0353 37.3815 87.5809 37.9506 85.4941 37.9506C82.9014 37.9506 77.4632 36.0536 77.4632 26.1889V25.8727H92.3867C92.3235 25.9359 92.3235 25.9359 92.3235 25.8727ZM88.8456 25.1139H77.4L77.4632 24.7345C77.8426 21.1933 79.8662 17.9683 83.0912 17.9051C86.822 17.8418 88.8456 20.6874 88.8456 25.1139Z" fill="#262626"/>
</g>
</g>
<defs>
<clipPath id="clip0_657_39338">
<rect width="218" height="50" fill="white"/>
</clipPath>
<clipPath id="clip1_657_39338">
<rect width="129" height="30" fill="white" transform="translate(0 10)"/>
</clipPath>
</defs>
</svg>
